<?xml version="1.0" encoding="UTF-8"?>
<svg id="svg2" xmlns="http://www.w3.org/2000/svg" version="1.1" xmlns:cc="http://creativecommons.org/ns#" xmlns:dc="http://purl.org/dc/elements/1.1/" xmlns:rdf="http://www.w3.org/1999/02/22-rdf-syntax-ns#" xmlns:svg="http://www.w3.org/2000/svg" viewBox="0 0 869.29 246.05">
  <!-- Generator: Adobe Illustrator 29.4.0, SVG Export Plug-In . SVG Version: 2.1.0 Build 152)  -->
  <defs>
    <style>
      .st0 {
        fill: #fff;
      }
    </style>
  </defs>
  <path id="path22" class="st0" d="M223.63,230.74h29.54l1.97-8.02h-19.89l2.25-9.19h15.63l1.92-7.8h-15.63l2.06-8.4h19.9l2.02-8.2h-29.54l-10.22,41.62ZM416.28,189.13h-19.48l-10.21,41.62h9.82l4.02-16.38h7.04l2.31,16.38h10.72l-3.12-18.44c4.62-1.13,8.37-5.85,9.54-10.69,1.52-6.18-1.02-12.49-10.65-12.49M417.14,201.79c-.67,2.73-3.18,5.32-6.98,5.32h-8.09l2.56-10.45h8.58c3.43,0,4.58,2.48,3.93,5.13M298.7,196.27c3.2,0,6.06,1.41,6.11,4.85l8.93-2.71c-.92-8.3-7.73-9.8-13.51-9.8-11.24.36-16.29,7.42-17.83,13.18-.06.73-.16,1.57-.31,2.18-1.03,11.93,14.58,8.71,17.55,13.06.49.72.51,1.57.32,2.37-.63,2.53-4.42,4.29-7.74,4.29-2.43-.12-6.87-.73-7.01-6.04l-9.47,2.22c.25,10.51,9.29,11.5,14.12,11.5,7.04,0,16.21-2.72,19.66-11.87,2.72-7.44-.42-12.27-7.5-14.15-5.07-.97-10.63-1.39-9.66-5.33.69-2.81,3.62-3.75,6.34-3.75M360.19,189.13h-18.91l-10.22,41.62h9.64l3.79-15.47h9.29c8.68,0,14.82-6.6,16.41-13.11,1.62-6.62-1.21-13.04-10-13.04M360.55,202.17c-.66,2.71-3.66,5.55-7.37,5.55h-6.81l2.69-11h6.21c4.46,0,6,2.59,5.29,5.45M632.64,188.61c-8.38,0-19.54,6.1-23.05,20.99-4.5,20.19,7.38,21.67,12.34,21.67,10.49,0,19.04-7.1,22.76-20.83,2.81-10.42-.31-21.83-12.05-21.83M635.42,205.48c-.15,1.63-.58,3.33-.98,4.96-1.23,5.07-3.96,12.99-10.64,13.24-3.48-.12-6.28-3.68-4.94-10.05,0,0,.51-2.11.97-4.47.48-1.44.82-2.83,1.19-3.92,2.32-5.93,6.25-8.73,9.55-8.73,3.57,0,6.06,3.16,4.86,8.97M825.48,152.62H25.43c-.65,0-1.19.48-1.79,1.62-2.65,5.08-4.7,9.46-4.71,9.49-.17.71.26,1.29.97,1.29h802.62c.38,0,1.33-.43,1.53-1.25l2.4-9.92c.1-.46-.19-1.22-.97-1.22M836.24,40.54h-40.43c-10,0-20.05,8.12-22.51,18.14l-5.41,21.99c-2.45,10.02,3.63,18.14,13.63,18.14,0,0,27.03-.01,27.08-.01,3.25,0,5.25,2.64,4.44,5.91l-3.75,15.39c-1.04,4.27-5.35,7.73-9.61,7.73h-11.91c-3.26,0-5.23-2.64-4.45-5.91l.73-3.05c.18-.71-.25-1.28-.97-1.28h-22.98c-.7,0-1.41.57-1.58,1.27l-1.49,6.02c-.71,2.9-.69,5.64-.09,8.07h-27.87c1.81-2.44,3.16-5.18,3.88-8.09l5.55-22.57c2.33-9.5-2.88-18.3-14.19-18.3h-26.49c-3.31,0-5.22-2.77-4.46-5.92,0-.03,4.04-16.44,4.04-16.44.8-3.27,4.07-5.91,7.34-5.91h13.73c3.26,0,5.25,2.65,4.45,5.91,0,.02-.64,2.52-.64,2.52-.14.68.33,1.22,1.01,1.22h22.98c.69,0,1.38-.55,1.57-1.23l1.36-5.47c2.45-10.02-3.67-18.14-13.63-18.14h-40.44c-10.01,0-20.06,8.12-22.51,18.14l-5.42,21.99c-2.45,10.02,3.64,18.14,13.62,18.14,0,0,27.04-.01,27.09-.01,3.25,0,5.24,2.64,4.45,5.91l-3.75,15.39c-1.05,4.27-5.35,7.73-9.62,7.73h-11.89c-3.27,0-5.25-2.64-4.44-5.91l.72-3.05c.17-.71-.25-1.28-.97-1.28h-22.96c-.7,0-1.42.57-1.6,1.27l-1.48,6.02c-.71,2.9-.7,5.64-.09,8.07h-22.69l6.5-13.69c.47-.97-.37-1.87-1.4-1.87h-21.01c-1.19,0-1.87,1.16-2.15,1.61l-4.55,7.47c-.34.57-1,1.35-1.72,1.35h-18.29c-3.33,0-5.29-2.71-4.51-5.91l5.07-20.85c.29-1.15,1.44-2.26,2.79-2.27h34.59c.84,0,1.48-.65,1.67-1.5l2.87-11.79c.21-.84-.3-1.53-1.15-1.53h-34.36c-1.25,0-2-1.01-1.69-2.26l4.92-20.1c.69-3.2,4.08-5.91,7.33-5.91h40.49c1.29,0,2.51-1.02,2.82-2.26l1.7-7.02c.79-3.27-1.19-5.92-4.45-5.92h-60.52c-4.27,0-8.56,3.47-9.61,7.74l-18.79,76.61c-.71,2.91-.7,5.65-.08,8.07h-29.74l-10.96-31.14c-.72-1.65.84-3.52,2.39-3.92,13.53-2.37,19.21-12.41,20.39-17.26l5.38-21.96c2.44-10.02-3.67-18.15-13.63-18.15h-56.97c-4.26,0-8.55,3.47-9.61,7.75l-21.17,84.68h-78.39l17.87-71.31c.87-3.47,3.79-5.92,8.05-5.92h19.18c3.25,0,5.25,2.65,4.45,5.91l-3.87,15.89c-1.23,4.25-5.02,7.82-9.62,7.82h-10.01c-.71,0-1.43.57-1.59,1.29l-2.7,10.89c-.18.71.26,1.28.97,1.28h25.13c8.18,0,19.62-6,22.6-18.18l5.37-21.95c2.45-10.02-3.66-18.15-13.64-18.15h-56.95c-4.26,0-8.56,3.47-9.61,7.74l-21.17,84.68h-16.83l6.58-13.83c.46-.96-.38-1.87-1.41-1.87h-22.09c-.93.03-1.68.64-2.18,1.57l-4.55,7.52c-.51.76-1.15,1.48-2.18,1.48h-17.87c-3.32,0-5.34-2.67-4.55-5.89.02-.07,19.58-80.12,19.58-80.12.17-.71-.26-1.29-.97-1.29h-22.97c-.71,0-1.43.58-1.6,1.29l-20.3,83.07c-.7,2.9-.69,5.64-.09,8.07h-15.83l6.58-13.83c.46-.96-.37-1.87-1.4-1.87-7.38,0-14.74,0-22.12,0-.7.03-1.5.45-2.15,1.62l-4.55,7.47c-.11.13-1.02,1.58-2.14,1.48h-17.92c-3.32,0-5.32-2.69-4.54-5.9.01-.07,19.57-80.12,19.57-80.12.17-.71-.26-1.29-.97-1.29h-22.97c-.7,0-1.42.58-1.59,1.29l-20.29,83.07c-.71,2.9-.7,5.64-.09,8.07h-24.1l-4.08-105.58c-.18-1.16-.87-4.2-4.43-4.27h-29.33c-3.61,0-7.23,2.49-8.89,5.85l-28.25,53.73c.06,0-.88,1.32-2.18,1.32h-19.05c-.7,0-1.42.57-1.59,1.29l-3,12.24c-.17.71.26,1.28.97,1.28h14.51c1.06-.02,1.38.89,1.03,1.57l-21.51,41.25c-.33.64.15,1.38.86,1.38h20.57c1,0,1.46-.45,1.68-.93l21.92-41.85c.33-.63,1.22-1.42,2.23-1.43h32.39c.92,0,1.53.66,1.53,1.52l1.57,41.09c-.05.9.56,1.59,1.52,1.59h353.14c.7.01,1.42-.56,1.59-1.27h0l20.06-80.1c.93-3.71,4.38-5.92,7.33-5.92h19.1c3.48,0,6.2,2.03,5.24,5.92-1.16,5.32-2.59,10.61-3.87,15.89-.91,4.24-5.29,7.81-9.61,7.81h-10.01c-.71,0-1.43.57-1.61,1.28,0,0-2.58,10.36-2.59,10.43-.11.45-.11.86-.03,1.24l14.85,41.44c.73,2.04,2.05,3.28,4.45,3.28h298.24c9.98,0,20.06-8.13,22.51-18.15l6.05-24.62c.68-2.75.08-16.33-14.97-16.33l-26.19.08c-3.32,0-5.23-2.77-4.46-5.92,0-.03,4.02-16.44,4.02-16.44.81-3.27,4.09-5.91,7.34-5.91h13.75c3.25,0,5.24,2.65,4.45,5.91,0,.02-.64,2.52-.64,2.52-.15.68.32,1.22,1.02,1.22h22.98c.68,0,1.36-.55,1.56-1.23l1.36-5.47c2.35-9.6-3.51-18.14-13.64-18.14M108.12,84h-21.15c-1.91,0-2.1-1.92-1.28-3.13l21.07-40.21c.86-1.95,2.78-1.85,2.88-.06l1.32,40.57c.05,1.47-1.37,2.84-2.83,2.84M573.83,196.27c3.21,0,6.05,1.41,6.11,4.85l8.92-2.71c-.92-8.3-7.73-9.8-13.51-9.8-11.23.36-16.28,7.42-17.83,13.18-.04.73-.14,1.57-.29,2.18-1.05,11.93,14.55,8.71,17.55,13.06.47.72.51,1.57.32,2.37-.62,2.53-4.43,4.29-7.76,4.29-2.43-.12-6.88-.73-7.01-6.04l-9.47,2.22c.25,10.51,9.3,11.5,14.12,11.5,7.05,0,16.23-2.72,19.68-11.87,2.71-7.44-.42-12.27-7.5-14.15-5.07-.97-10.62-1.39-9.65-5.33.69-2.81,3.63-3.75,6.33-3.75M519.52,196.27c3.19,0,6.05,1.41,6.11,4.85l8.92-2.71c-.93-8.3-7.73-9.8-13.52-9.8-11.25.36-16.27,7.42-17.83,13.18-.04.73-.13,1.57-.28,2.18-1.07,11.93,14.54,8.71,17.53,13.06.48.72.51,1.57.31,2.37-.61,2.53-4.42,4.29-7.73,4.29-2.44-.12-6.88-.73-7.01-6.04l-9.48,2.22c.26,10.51,9.3,11.5,14.11,11.5,7.06,0,16.23-2.72,19.68-11.87,2.73-7.44-.42-12.27-7.48-14.15-5.07-.97-10.63-1.39-9.66-5.33.68-2.81,3.61-3.75,6.33-3.75M444.44,230.74h29.53l1.96-8.02h-19.88l2.27-9.19h15.62l1.92-7.8h-15.63l2.07-8.4h19.88l2.02-8.2h-29.54l-10.21,41.62Z"/>
</svg>